<svg xmlns="http://www.w3.org/2000/svg" viewBox="0 0 101 101"><path d="M19.8 53.9c0 17 13.8 30.7 30.7 30.7s30.7-13.8 30.7-30.7c0-8.4-3.4-16.1-9-21.7l2.4-2.4 1.1 1.1c.5.5 1.1.7 1.7.7.6 0 1.2-.2 1.7-.7.9-.9.9-2.5 0-3.4l-5.6-5.6c-.9-.9-2.5-.9-3.4 0s-.9 2.5 0 3.4l1.1 1.1-2.7 2.7c-4.5-3.3-9.9-5.4-15.7-5.8v-2.1h5.3c1.3 0 2.4-1.1 2.4-2.4 0-1.3-1.1-2.4-2.4-2.4H42.4c-1.3 0-2.4 1.1-2.4 2.4 0 1.3 1.1 2.4 2.4 2.4h5.7v2.1c-15.8 1.2-28.3 14.4-28.3 30.6zm30.7 25.9c-14.3 0-25.9-11.6-25.9-25.9C24.6 39.6 36.2 28 50.5 28c14.3 0 25.9 11.6 25.9 25.9 0 14.3-11.6 25.9-25.9 25.9z"/><path d="M60.8 51.1h-7.9V38.6c0-1.3-1.1-2.4-2.4-2.4s-2.4 1.1-2.4 2.4v14.9c0 1.3 1.1 2.4 2.4 2.4h10.3c1.3 0 2.4-1.1 2.4-2.4s-1.1-2.4-2.4-2.4z"/></svg>